$MeshFormat
2.2 0 8
$EndMeshFormat
$PhysicalNames
7
2 991 "boundary_xm"
2 992 "boundary_xp"
2 993 "boundary_ym"
2 994 "boundary_yp"
2 995 "boundary_zm"
2 996 "boundary_zp"
3 99991 "matrix"
$EndPhysicalNames
$Nodes
242
1 0 0 1000
2 1000 0 1000
3 1000 1000 1000
4 0 1000 1000
5 0 1000 2000
6 0 0 2000
7 1000 0 2000
8 1000 1000 2000
9 99.99999999996535 0 1000
10 199.9999999997947 0 1000
11 299.9999999996783 0 1000
12 399.9999999997153 0 1000
13 499.9999999997633 0 1000
14 599.9999999998549 0 1000
15 699.9999999998913 0 1000
16 799.9999999999275 0 1000
17 899.9999999999636 0 1000
18 1000 99.99999999996535 1000
19 1000 199.9999999997947 1000
20 1000 299.9999999996783 1000
21 1000 399.9999999997153 1000
22 1000 499.9999999997633 1000
23 1000 599.9999999998549 1000
24 1000 699.9999999998913 1000
25 1000 799.9999999999275 1000
26 1000 899.9999999999636 1000
27 900.0000000000066 1000 1000
28 800.0000000000132 1000 1000
29 700.0000000000199 1000 1000
30 600.0000000000266 1000 1000
31 500.0000000000221 1000 1000
32 399.9999999999733 1000 1000
33 299.99999999998 1000 1000
34 199.9999999999866 1000 1000
35 99.99999999999329 1000 1000
36 0 900.0000000000066 1000
37 0 800.0000000000132 1000
38 0 700.0000000000199 1000
39 0 600.0000000000266 1000
40 0 500.0000000000221 1000
41 0 399.9999999999733 1000
42 0 299.99999999998 1000
43 0 199.9999999999866 1000
44 0 99.99999999999329 1000
45 0 900.0000000000066 2000
46 0 800.0000000000132 2000
47 0 700.0000000000199 2000
48 0 600.0000000000266 2000
49 0 500.0000000000221 2000
50 0 399.9999999999733 2000
51 0 299.99999999998 2000
52 0 199.9999999999866 2000
53 0 99.99999999999329 2000
54 99.99999999996535 0 2000
55 199.9999999997947 0 2000
56 299.9999999996783 0 2000
57 399.9999999997153 0 2000
58 499.9999999997633 0 2000
59 599.9999999998549 0 2000
60 699.9999999998913 0 2000
61 799.9999999999275 0 2000
62 899.9999999999636 0 2000
63 1000 99.99999999996535 2000
64 1000 199.9999999997947 2000
65 1000 299.9999999996783 2000
66 1000 399.9999999997153 2000
67 1000 499.9999999997633 2000
68 1000 599.9999999998549 2000
69 1000 699.9999999998913 2000
70 1000 799.9999999999275 2000
71 1000 899.9999999999636 2000
72 900.0000000000066 1000 2000
73 800.0000000000132 1000 2000
74 700.0000000000199 1000 2000
75 600.0000000000266 1000 2000
76 500.0000000000221 1000 2000
77 399.9999999999733 1000 2000
78 299.99999999998 1000 2000
79 199.9999999999866 1000 2000
80 99.99999999999329 1000 2000
81 99.99999999996815 99.99999999999049 1000
82 99.99999999997094 199.9999999999674 1000
83 99.99999999997372 299.9999999999499 1000
84 99.99999999997652 399.9999999999475 1000
85 99.99999999997931 499.9999999999962 1000
86 99.99999999998212 600.0000000000092 1000
87 99.99999999998494 700.0000000000073 1000
88 99.99999999998772 800.0000000000047 1000
89 99.99999999999049 900.0000000000022 1000
90 199.9999999998139 99.99999999998768 1000
91 199.999999999833 199.9999999999482 1000
92 199.9999999998522 299.9999999999196 1000
93 199.9999999998714 399.9999999999217 1000
94 199.9999999998905 499.9999999999704 1000
95 199.9999999999098 599.9999999999923 1000
96 199.999999999929 699.9999999999942 1000
97 199.9999999999482 799.9999999999961 1000
98 199.9999999999674 899.9999999999981 1000
99 299.9999999997085 99.99999999998489 1000
100 299.9999999997386 199.999999999929 1000
101 299.9999999997689 299.9999999998895 1000
102 299.999999999799 399.9999999998959 1000
103 299.9999999998291 499.9999999999445 1000
104 299.9999999998594 599.9999999999752 1000
105 299.9999999998895 699.9999999999812 1000
106 299.9999999999196 799.9999999999875 1000
107 299.9999999999499 899.9999999999939 1000
108 399.999999999741 99.99999999998212 1000
109 399.9999999997669 199.9999999999098 1000
110 399.9999999997926 299.9999999998594 1000
111 399.9999999998184 399.9999999998701 1000
112 399.9999999998442 499.9999999999186 1000
113 399.9999999998701 599.9999999999579 1000
114 399.9999999998959 699.9999999999685 1000
115 399.9999999999217 799.9999999999789 1000
116 399.9999999999475 899.9999999999893 1000
117 499.9999999997892 99.99999999997931 1000
118 499.9999999998151 199.9999999998906 1000
119 499.999999999841 299.9999999998291 1000
120 499.9999999998669 399.9999999998442 1000
121 499.9999999998927 499.9999999998927 1000
122 499.9999999999185 599.9999999999407 1000
123 499.9999999999445 699.9999999999559 1000
124 499.9999999999704 799.9999999999702 1000
125 499.9999999999961 899.9999999999849 1000
126 599.9999999998721 99.99999999997652 1000
127 599.9999999998893 199.9999999998714 1000
128 599.9999999999065 299.999999999799 1000
129 599.9999999999236 399.9999999998186 1000
130 599.9999999999407 499.9999999998668 1000
131 599.9999999999579 599.9999999999236 1000
132 599.9999999999752 699.9999999999426 1000
133 599.9999999999923 799.9999999999618 1000
134 600.0000000000093 899.9999999999807 1000
135 699.9999999999043 99.99999999997374 1000
136 699.9999999999171 199.9999999998522 1000
137 699.9999999999299 299.9999999997689 1000
138 699.9999999999426 399.9999999997926 1000
139 699.9999999999559 499.999999999841 1000
140 699.9999999999685 599.9999999999065 1000
141 699.9999999999812 699.9999999999299 1000
142 699.9999999999942 799.9999999999532 1000
143 700.0000000000072 899.9999999999766 1000
144 799.9999999999362 99.99999999997095 1000
145 799.9999999999447 199.9999999998331 1000
146 799.9999999999532 299.9999999997386 1000
147 799.9999999999616 399.9999999997669 1000
148 799.9999999999704 499.999999999815 1000
149 799.9999999999789 599.9999999998893 1000
150 799.9999999999875 699.9999999999171 1000
151 799.9999999999962 799.9999999999446 1000
152 800.0000000000045 899.9999999999721 1000
153 899.9999999999678 99.99999999996813 1000
154 899.9999999999724 199.9999999998138 1000
155 899.9999999999764 299.9999999997085 1000
156 899.9999999999807 399.999999999741 1000
157 899.9999999999851 499.9999999997892 1000
158 899.9999999999893 599.999999999872 1000
159 899.9999999999934 699.9999999999042 1000
160 899.9999999999981 799.9999999999359 1000
161 900.0000000000023 899.9999999999677 1000
162 99.99999999996815 99.99999999999049 2000
163 99.99999999997094 199.9999999999674 2000
164 99.99999999997372 299.9999999999499 2000
165 99.99999999997652 399.9999999999475 2000
166 99.99999999997931 499.9999999999962 2000
167 99.99999999998212 600.0000000000092 2000
168 99.99999999998494 700.0000000000073 2000
169 99.99999999998772 800.0000000000047 2000
170 99.99999999999049 900.0000000000022 2000
171 199.9999999998139 99.99999999998768 2000
172 199.999999999833 199.9999999999482 2000
173 199.9999999998522 299.9999999999196 2000
174 199.9999999998714 399.9999999999217 2000
175 199.9999999998905 499.9999999999704 2000
176 199.9999999999098 599.9999999999923 2000
177 199.999999999929 699.9999999999942 2000
178 199.9999999999482 799.9999999999961 2000
179 199.9999999999674 899.9999999999981 2000
180 299.9999999997085 99.99999999998489 2000
181 299.9999999997386 199.999999999929 2000
182 299.9999999997689 299.9999999998895 2000
183 299.999999999799 399.9999999998959 2000
184 299.9999999998291 499.9999999999445 2000
185 299.9999999998594 599.9999999999752 2000
186 299.9999999998895 699.9999999999812 2000
187 299.9999999999196 799.9999999999875 2000
188 299.9999999999499 899.9999999999939 2000
189 399.999999999741 99.99999999998212 2000
190 399.9999999997669 199.9999999999098 2000
191 399.9999999997926 299.9999999998594 2000
192 399.9999999998184 399.9999999998701 2000
193 399.9999999998442 499.9999999999186 2000
194 399.9999999998701 599.9999999999579 2000
195 399.9999999998959 699.9999999999685 2000
196 399.9999999999217 799.9999999999789 2000
197 399.9999999999475 899.9999999999893 2000
198 499.9999999997892 99.99999999997931 2000
199 499.9999999998151 199.9999999998906 2000
200 499.999999999841 299.9999999998291 2000
201 499.9999999998669 399.9999999998442 2000
202 499.9999999998927 499.9999999998927 2000
203 499.9999999999185 599.9999999999407 2000
204 499.9999999999445 699.9999999999559 2000
205 499.9999999999704 799.9999999999702 2000
206 499.9999999999961 899.9999999999849 2000
207 599.9999999998721 99.99999999997652 2000
208 599.9999999998893 199.9999999998714 2000
209 599.9999999999065 299.999999999799 2000
210 599.9999999999236 399.9999999998186 2000
211 599.9999999999407 499.9999999998668 2000
212 599.9999999999579 599.9999999999236 2000
213 599.9999999999752 699.9999999999426 2000
214 599.9999999999923 799.9999999999618 2000
215 600.0000000000093 899.9999999999807 2000
216 699.9999999999043 99.99999999997374 2000
217 699.9999999999171 199.9999999998522 2000
218 699.9999999999299 299.9999999997689 2000
219 699.9999999999426 399.9999999997926 2000
220 699.9999999999559 499.999999999841 2000
221 699.9999999999685 599.9999999999065 2000
222 699.9999999999812 699.9999999999299 2000
223 699.9999999999942 799.9999999999532 2000
224 700.0000000000072 899.9999999999766 2000
225 799.9999999999362 99.99999999997095 2000
226 799.9999999999447 199.9999999998331 2000
227 799.9999999999532 299.9999999997386 2000
228 799.9999999999616 399.9999999997669 2000
229 799.9999999999704 499.999999999815 2000
230 799.9999999999789 599.9999999998893 2000
231 799.9999999999875 699.9999999999171 2000
232 799.9999999999962 799.9999999999446 2000
233 800.0000000000045 899.9999999999721 2000
234 899.9999999999678 99.99999999996813 2000
235 899.9999999999724 199.9999999998138 2000
236 899.9999999999764 299.9999999997085 2000
237 899.9999999999807 399.999999999741 2000
238 899.9999999999851 499.9999999997892 2000
239 899.9999999999893 599.999999999872 2000
240 899.9999999999934 699.9999999999042 2000
241 899.9999999999981 799.9999999999359 2000
242 900.0000000000023 899.9999999999677 2000
$EndNodes
$Elements
340
1 3 2 995 1 1 9 81 44
2 3 2 995 1 44 81 82 43
3 3 2 995 1 43 82 83 42
4 3 2 995 1 42 83 84 41
5 3 2 995 1 41 84 85 40
6 3 2 995 1 40 85 86 39
7 3 2 995 1 39 86 87 38
8 3 2 995 1 38 87 88 37
9 3 2 995 1 37 88 89 36
10 3 2 995 1 36 89 35 4
11 3 2 995 1 9 10 90 81
12 3 2 995 1 81 90 91 82
13 3 2 995 1 82 91 92 83
14 3 2 995 1 83 92 93 84
15 3 2 995 1 84 93 94 85
16 3 2 995 1 85 94 95 86
17 3 2 995 1 86 95 96 87
18 3 2 995 1 87 96 97 88
19 3 2 995 1 88 97 98 89
20 3 2 995 1 89 98 34 35
21 3 2 995 1 10 11 99 90
22 3 2 995 1 90 99 100 91
23 3 2 995 1 91 100 101 92
24 3 2 995 1 92 101 102 93
25 3 2 995 1 93 102 103 94
26 3 2 995 1 94 103 104 95
27 3 2 995 1 95 104 105 96
28 3 2 995 1 96 105 106 97
29 3 2 995 1 97 106 107 98
30 3 2 995 1 98 107 33 34
31 3 2 995 1 11 12 108 99
32 3 2 995 1 99 108 109 100
33 3 2 995 1 100 109 110 101
34 3 2 995 1 101 110 111 102
35 3 2 995 1 102 111 112 103
36 3 2 995 1 103 112 113 104
37 3 2 995 1 104 113 114 105
38 3 2 995 1 105 114 115 106
39 3 2 995 1 106 115 116 107
40 3 2 995 1 107 116 32 33
41 3 2 995 1 12 13 117 108
42 3 2 995 1 108 117 118 109
43 3 2 995 1 109 118 119 110
44 3 2 995 1 110 119 120 111
45 3 2 995 1 111 120 121 112
46 3 2 995 1 112 121 122 113
47 3 2 995 1 113 122 123 114
48 3 2 995 1 114 123 124 115
49 3 2 995 1 115 124 125 116
50 3 2 995 1 116 125 31 32
51 3 2 995 1 13 14 126 117
52 3 2 995 1 117 126 127 118
53 3 2 995 1 118 127 128 119
54 3 2 995 1 119 128 129 120
55 3 2 995 1 120 129 130 121
56 3 2 995 1 121 130 131 122
57 3 2 995 1 122 131 132 123
58 3 2 995 1 123 132 133 124
59 3 2 995 1 124 133 134 125
60 3 2 995 1 125 134 30 31
61 3 2 995 1 14 15 135 126
62 3 2 995 1 126 135 136 127
63 3 2 995 1 127 136 137 128
64 3 2 995 1 128 137 138 129
65 3 2 995 1 129 138 139 130
66 3 2 995 1 130 139 140 131
67 3 2 995 1 131 140 141 132
68 3 2 995 1 132 141 142 133
69 3 2 995 1 133 142 143 134
70 3 2 995 1 134 143 29 30
71 3 2 995 1 15 16 144 135
72 3 2 995 1 135 144 145 136
73 3 2 995 1 136 145 146 137
74 3 2 995 1 137 146 147 138
75 3 2 995 1 138 147 148 139
76 3 2 995 1 139 148 149 140
77 3 2 995 1 140 149 150 141
78 3 2 995 1 141 150 151 142
79 3 2 995 1 142 151 152 143
80 3 2 995 1 143 152 28 29
81 3 2 995 1 16 17 153 144
82 3 2 995 1 144 153 154 145
83 3 2 995 1 145 154 155 146
84 3 2 995 1 146 155 156 147
85 3 2 995 1 147 156 157 148
86 3 2 995 1 148 157 158 149
87 3 2 995 1 149 158 159 150
88 3 2 995 1 150 159 160 151
89 3 2 995 1 151 160 161 152
90 3 2 995 1 152 161 27 28
91 3 2 995 1 17 2 18 153
92 3 2 995 1 153 18 19 154
93 3 2 995 1 154 19 20 155
94 3 2 995 1 155 20 21 156
95 3 2 995 1 156 21 22 157
96 3 2 995 1 157 22 23 158
97 3 2 995 1 158 23 24 159
98 3 2 995 1 159 24 25 160
99 3 2 995 1 160 25 26 161
100 3 2 995 1 161 26 3 27
101 3 2 991 13 4 36 45 5
102 3 2 991 13 36 37 46 45
103 3 2 991 13 37 38 47 46
104 3 2 991 13 38 39 48 47
105 3 2 991 13 39 40 49 48
106 3 2 991 13 40 41 50 49
107 3 2 991 13 41 42 51 50
108 3 2 991 13 42 43 52 51
109 3 2 991 13 43 44 53 52
110 3 2 991 13 44 1 6 53
111 3 2 993 17 1 9 54 6
112 3 2 993 17 9 10 55 54
113 3 2 993 17 10 11 56 55
114 3 2 993 17 11 12 57 56
115 3 2 993 17 12 13 58 57
116 3 2 993 17 13 14 59 58
117 3 2 993 17 14 15 60 59
118 3 2 993 17 15 16 61 60
119 3 2 993 17 16 17 62 61
120 3 2 993 17 17 2 7 62
121 3 2 992 21 2 18 63 7
122 3 2 992 21 18 19 64 63
123 3 2 992 21 19 20 65 64
124 3 2 992 21 20 21 66 65
125 3 2 992 21 21 22 67 66
126 3 2 992 21 22 23 68 67
127 3 2 992 21 23 24 69 68
128 3 2 992 21 24 25 70 69
129 3 2 992 21 25 26 71 70
130 3 2 992 21 26 3 8 71
131 3 2 994 25 3 27 72 8
132 3 2 994 25 27 28 73 72
133 3 2 994 25 28 29 74 73
134 3 2 994 25 29 30 75 74
135 3 2 994 25 30 31 76 75
136 3 2 994 25 31 32 77 76
137 3 2 994 25 32 33 78 77
138 3 2 994 25 33 34 79 78
139 3 2 994 25 34 35 80 79
140 3 2 994 25 35 4 5 80
141 3 2 996 26 6 54 162 53
142 3 2 996 26 53 162 163 52
143 3 2 996 26 52 163 164 51
144 3 2 996 26 51 164 165 50
145 3 2 996 26 50 165 166 49
146 3 2 996 26 49 166 167 48
147 3 2 996 26 48 167 168 47
148 3 2 996 26 47 168 169 46
149 3 2 996 26 46 169 170 45
150 3 2 996 26 45 170 80 5
151 3 2 996 26 54 55 171 162
152 3 2 996 26 162 171 172 163
153 3 2 996 26 163 172 173 164
154 3 2 996 26 164 173 174 165
155 3 2 996 26 165 174 175 166
156 3 2 996 26 166 175 176 167
157 3 2 996 26 167 176 177 168
158 3 2 996 26 168 177 178 169
159 3 2 996 26 169 178 179 170
160 3 2 996 26 170 179 79 80
161 3 2 996 26 55 56 180 171
162 3 2 996 26 171 180 181 172
163 3 2 996 26 172 181 182 173
164 3 2 996 26 173 182 183 174
165 3 2 996 26 174 183 184 175
166 3 2 996 26 175 184 185 176
167 3 2 996 26 176 185 186 177
168 3 2 996 26 177 186 187 178
169 3 2 996 26 178 187 188 179
170 3 2 996 26 179 188 78 79
171 3 2 996 26 56 57 189 180
172 3 2 996 26 180 189 190 181
173 3 2 996 26 181 190 191 182
174 3 2 996 26 182 191 192 183
175 3 2 996 26 183 192 193 184
176 3 2 996 26 184 193 194 185
177 3 2 996 26 185 194 195 186
178 3 2 996 26 186 195 196 187
179 3 2 996 26 187 196 197 188
180 3 2 996 26 188 197 77 78
181 3 2 996 26 57 58 198 189
182 3 2 996 26 189 198 199 190
183 3 2 996 26 190 199 200 191
184 3 2 996 26 191 200 201 192
185 3 2 996 26 192 201 202 193
186 3 2 996 26 193 202 203 194
187 3 2 996 26 194 203 204 195
188 3 2 996 26 195 204 205 196
189 3 2 996 26 196 205 206 197
190 3 2 996 26 197 206 76 77
191 3 2 996 26 58 59 207 198
192 3 2 996 26 198 207 208 199
193 3 2 996 26 199 208 209 200
194 3 2 996 26 200 209 210 201
195 3 2 996 26 201 210 211 202
196 3 2 996 26 202 211 212 203
197 3 2 996 26 203 212 213 204
198 3 2 996 26 204 213 214 205
199 3 2 996 26 205 214 215 206
200 3 2 996 26 206 215 75 76
201 3 2 996 26 59 60 216 207
202 3 2 996 26 207 216 217 208
203 3 2 996 26 208 217 218 209
204 3 2 996 26 209 218 219 210
205 3 2 996 26 210 219 220 211
206 3 2 996 26 211 220 221 212
207 3 2 996 26 212 221 222 213
208 3 2 996 26 213 222 223 214
209 3 2 996 26 214 223 224 215
210 3 2 996 26 215 224 74 75
211 3 2 996 26 60 61 225 216
212 3 2 996 26 216 225 226 217
213 3 2 996 26 217 226 227 218
214 3 2 996 26 218 227 228 219
215 3 2 996 26 219 228 229 220
216 3 2 996 26 220 229 230 221
217 3 2 996 26 221 230 231 222
218 3 2 996 26 222 231 232 223
219 3 2 996 26 223 232 233 224
220 3 2 996 26 224 233 73 74
221 3 2 996 26 61 62 234 225
222 3 2 996 26 225 234 235 226
223 3 2 996 26 226 235 236 227
224 3 2 996 26 227 236 237 228
225 3 2 996 26 228 237 238 229
226 3 2 996 26 229 238 239 230
227 3 2 996 26 230 239 240 231
228 3 2 996 26 231 240 241 232
229 3 2 996 26 232 241 242 233
230 3 2 996 26 233 242 72 73
231 3 2 996 26 62 7 63 234
232 3 2 996 26 234 63 64 235
233 3 2 996 26 235 64 65 236
234 3 2 996 26 236 65 66 237
235 3 2 996 26 237 66 67 238
236 3 2 996 26 238 67 68 239
237 3 2 996 26 239 68 69 240
238 3 2 996 26 240 69 70 241
239 3 2 996 26 241 70 71 242
240 3 2 996 26 242 71 8 72
241 5 2 99991 1 1 9 81 44 6 54 162 53
242 5 2 99991 1 44 81 82 43 53 162 163 52
243 5 2 99991 1 43 82 83 42 52 163 164 51
244 5 2 99991 1 42 83 84 41 51 164 165 50
245 5 2 99991 1 41 84 85 40 50 165 166 49
246 5 2 99991 1 40 85 86 39 49 166 167 48
247 5 2 99991 1 39 86 87 38 48 167 168 47
248 5 2 99991 1 38 87 88 37 47 168 169 46
249 5 2 99991 1 37 88 89 36 46 169 170 45
250 5 2 99991 1 36 89 35 4 45 170 80 5
251 5 2 99991 1 9 10 90 81 54 55 171 162
252 5 2 99991 1 81 90 91 82 162 171 172 163
253 5 2 99991 1 82 91 92 83 163 172 173 164
254 5 2 99991 1 83 92 93 84 164 173 174 165
255 5 2 99991 1 84 93 94 85 165 174 175 166
256 5 2 99991 1 85 94 95 86 166 175 176 167
257 5 2 99991 1 86 95 96 87 167 176 177 168
258 5 2 99991 1 87 96 97 88 168 177 178 169
259 5 2 99991 1 88 97 98 89 169 178 179 170
260 5 2 99991 1 89 98 34 35 170 179 79 80
261 5 2 99991 1 10 11 99 90 55 56 180 171
262 5 2 99991 1 90 99 100 91 171 180 181 172
263 5 2 99991 1 91 100 101 92 172 181 182 173
264 5 2 99991 1 92 101 102 93 173 182 183 174
265 5 2 99991 1 93 102 103 94 174 183 184 175
266 5 2 99991 1 94 103 104 95 175 184 185 176
267 5 2 99991 1 95 104 105 96 176 185 186 177
268 5 2 99991 1 96 105 106 97 177 186 187 178
269 5 2 99991 1 97 106 107 98 178 187 188 179
270 5 2 99991 1 98 107 33 34 179 188 78 79
271 5 2 99991 1 11 12 108 99 56 57 189 180
272 5 2 99991 1 99 108 109 100 180 189 190 181
273 5 2 99991 1 100 109 110 101 181 190 191 182
274 5 2 99991 1 101 110 111 102 182 191 192 183
275 5 2 99991 1 102 111 112 103 183 192 193 184
276 5 2 99991 1 103 112 113 104 184 193 194 185
277 5 2 99991 1 104 113 114 105 185 194 195 186
278 5 2 99991 1 105 114 115 106 186 195 196 187
279 5 2 99991 1 106 115 116 107 187 196 197 188
280 5 2 99991 1 107 116 32 33 188 197 77 78
281 5 2 99991 1 12 13 117 108 57 58 198 189
282 5 2 99991 1 108 117 118 109 189 198 199 190
283 5 2 99991 1 109 118 119 110 190 199 200 191
284 5 2 99991 1 110 119 120 111 191 200 201 192
285 5 2 99991 1 111 120 121 112 192 201 202 193
286 5 2 99991 1 112 121 122 113 193 202 203 194
287 5 2 99991 1 113 122 123 114 194 203 204 195
288 5 2 99991 1 114 123 124 115 195 204 205 196
289 5 2 99991 1 115 124 125 116 196 205 206 197
290 5 2 99991 1 116 125 31 32 197 206 76 77
291 5 2 99991 1 13 14 126 117 58 59 207 198
292 5 2 99991 1 117 126 127 118 198 207 208 199
293 5 2 99991 1 118 127 128 119 199 208 209 200
294 5 2 99991 1 119 128 129 120 200 209 210 201
295 5 2 99991 1 120 129 130 121 201 210 211 202
296 5 2 99991 1 121 130 131 122 202 211 212 203
297 5 2 99991 1 122 131 132 123 203 212 213 204
298 5 2 99991 1 123 132 133 124 204 213 214 205
299 5 2 99991 1 124 133 134 125 205 214 215 206
300 5 2 99991 1 125 134 30 31 206 215 75 76
301 5 2 99991 1 14 15 135 126 59 60 216 207
302 5 2 99991 1 126 135 136 127 207 216 217 208
303 5 2 99991 1 127 136 137 128 208 217 218 209
304 5 2 99991 1 128 137 138 129 209 218 219 210
305 5 2 99991 1 129 138 139 130 210 219 220 211
306 5 2 99991 1 130 139 140 131 211 220 221 212
307 5 2 99991 1 131 140 141 132 212 221 222 213
308 5 2 99991 1 132 141 142 133 213 222 223 214
309 5 2 99991 1 133 142 143 134 214 223 224 215
310 5 2 99991 1 134 143 29 30 215 224 74 75
311 5 2 99991 1 15 16 144 135 60 61 225 216
312 5 2 99991 1 135 144 145 136 216 225 226 217
313 5 2 99991 1 136 145 146 137 217 226 227 218
314 5 2 99991 1 137 146 147 138 218 227 228 219
315 5 2 99991 1 138 147 148 139 219 228 229 220
316 5 2 99991 1 139 148 149 140 220 229 230 221
317 5 2 99991 1 140 149 150 141 221 230 231 222
318 5 2 99991 1 141 150 151 142 222 231 232 223
319 5 2 99991 1 142 151 152 143 223 232 233 224
320 5 2 99991 1 143 152 28 29 224 233 73 74
321 5 2 99991 1 16 17 153 144 61 62 234 225
322 5 2 99991 1 144 153 154 145 225 234 235 226
323 5 2 99991 1 145 154 155 146 226 235 236 227
324 5 2 99991 1 146 155 156 147 227 236 237 228
325 5 2 99991 1 147 156 157 148 228 237 238 229
326 5 2 99991 1 148 157 158 149 229 238 239 230
327 5 2 99991 1 149 158 159 150 230 239 240 231
328 5 2 99991 1 150 159 160 151 231 240 241 232
329 5 2 99991 1 151 160 161 152 232 241 242 233
330 5 2 99991 1 152 161 27 28 233 242 72 73
331 5 2 99991 1 17 2 18 153 62 7 63 234
332 5 2 99991 1 153 18 19 154 234 63 64 235
333 5 2 99991 1 154 19 20 155 235 64 65 236
334 5 2 99991 1 155 20 21 156 236 65 66 237
335 5 2 99991 1 156 21 22 157 237 66 67 238
336 5 2 99991 1 157 22 23 158 238 67 68 239
337 5 2 99991 1 158 23 24 159 239 68 69 240
338 5 2 99991 1 159 24 25 160 240 69 70 241
339 5 2 99991 1 160 25 26 161 241 70 71 242
340 5 2 99991 1 161 26 3 27 242 71 8 72
$EndElements
