$MeshFormat
2.2 0 8
$EndMeshFormat
$Nodes
274
1 -2250 -2250 0
2 2250 -2250 0
3 2250 -75 0
4 2250 150 0
5 2250 2250 0
6 -2250 2250 0
7 -2250 75 0
8 -2250 -150 0
9 -45 -2250 0
10 45 -2250 0
11 2250 -22.5 0
12 2250 22.5 0
13 -2250 22.5 0
14 -2250 -22.5 0
15 -9.184547653667829e-15 -150 0
16 -4.592273826833915e-15 -75 0
17 4.592273826833915e-15 75 0
18 9.184547653667829e-15 150 0
19 2.14306111918916e-14 350 0
20 -2.14306111918916e-14 -350 0
21 -2250 -2250 500
22 -45 -2250 500
23 45 -2250 500
24 2250 -2250 500
25 2250 -75 500
26 -4.592273826833915e-15 -75 500
27 -9.184547653667829e-15 -150 500
28 -2250 -150 500
29 -2.14306111918916e-14 -350 500
30 2250 -22.5 500
31 2250 22.5 500
32 2250 150 500
33 9.184547653667829e-15 150 500
34 4.592273826833915e-15 75 500
35 -2250 75 500
36 -2250 22.5 500
37 -2250 -22.5 500
38 2250 2250 500
39 -2250 2250 500
40 2.14306111918916e-14 350 500
41 -1515.000000003227 -2250 0
42 -780.0000000026646 -2250 0
43 779.9999999970191 -2250 0
44 1514.999999997281 -2250 0
45 2250 -1557.899496127985 0
46 2250 -975.9145428671927 0
47 2250 -486.5255297569704 0
48 2250 695.8342496004992 0
49 2250 1383.542379077875 0
50 1350.00000000373 2250 0
51 450.0000000074606 2250 0
52 -449.9999999933561 2250 0
53 -1349.999999998721 2250 0
54 -2250 1557.899496127985 0
55 -2250 975.9145428671927 0
56 -2250 486.5255297569704 0
57 -2250 -695.8342496004992 0
58 -2250 -1383.542379077875 0
59 1800.000000001865 -75 0
60 1350.00000000373 -75 0
61 900.0000000033219 -75 0
62 450.0000000006394 -75 0
63 -449.9999999985814 -150 0
64 -899.9999999966046 -150 0
65 -1349.999999996902 -150 0
66 -1799.999999999472 -150 0
67 1800.000000001865 150 0
68 1350.00000000373 150 0
69 900.0000000033219 150 0
70 450.0000000006394 150 0
71 -449.9999999985814 75 0
72 -899.9999999966046 75 0
73 -1349.999999996902 75 0
74 -1799.999999999472 75 0
75 -1515.000000003227 -2250 500
76 -780.0000000026646 -2250 500
77 779.9999999970191 -2250 500
78 1514.999999997281 -2250 500
79 2250 -1557.899496127985 500
80 2250 -975.9145428671927 500
81 2250 -486.5255297569704 500
82 1800.000000001865 -75 500
83 1350.00000000373 -75 500
84 900.0000000033219 -75 500
85 450.0000000006394 -75 500
86 -449.9999999985814 -150 500
87 -899.9999999966046 -150 500
88 -1349.999999996902 -150 500
89 -1799.999999999472 -150 500
90 -2250 -695.8342496004992 500
91 -2250 -1383.542379077875 500
92 1800.000000001865 150 500
93 1350.00000000373 150 500
94 900.0000000033219 150 500
95 450.0000000006394 150 500
96 -449.9999999985814 75 500
97 -899.9999999966046 75 500
98 -1349.999999996902 75 500
99 -1799.999999999472 75 500
100 2250 695.8342496004992 500
101 2250 1383.542379077875 500
102 1350.00000000373 2250 500
103 450.0000000074606 2250 500
104 -449.9999999933561 2250 500
105 -1349.999999998721 2250 500
106 -2250 1557.899496127985 500
107 -2250 975.9145428671927 500
108 -2250 486.5255297569704 500
109 0 -1931.735664109287 0
110 -645.1691081458639 -542.82806474608 0
111 675.0000000019807 -464.7114317034511 0
112 1815.530306219958 -1199.050425713811 0
113 -1743.314798572291 -1036.094063037995 0
114 1571.177364512755 -432.0368526685862 0
115 -1221.414777561115 -1590.698441383349 0
116 1131.621225937209 -1742.480113848046 0
117 561.571813242711 -1636.718876134004 0
118 868.2387195049575 -1207.279787596028 0
119 308.6881741640865 -1258.053510827565 0
120 516.0181367078004 -876.1989493955282 0
121 122.0994269129655 -929.2094648311297 0
122 -57.30799068824172 -1239.228320411329 0
123 -224.1673979490913 -942.3168918640299 0
124 -419.773090807527 -1264.047357740383 0
125 261.470398838014 -594.7854989870973 0
126 -50.36232419691964 -662.2911447855661 0
127 144.2712265989814 -1564.737190005384 0
128 -1115.931835200459 -534.4759243157454 0
129 -898.2241375671025 -885.1682622382696 0
130 -1544.717811574305 -544.2593335368415 0
131 1119.990304407859 -452.1648826641508 0
132 1337.171756977025 -861.9205583589724 0
133 903.2837835199246 -772.4551219436261 0
134 1904.239677932259 -731.2200363120816 0
135 -339.6451984330126 -707.1667560885755 0
136 -1723.095111606992 -1615.240677924467 0
137 -631.8363318962188 -1632.119107425239 0
138 -200.1694945745015 -440.2303938861834 0
139 1750.084956290636 -1752.15637316655 0
140 -220.4494247678812 -1515.846239990954 0
141 -1225.90265533988 -988.186948976421 0
142 -559.7985840777671 -946.6588336706105 0
143 -826.158262874935 -1217.813158572379 0
144 306.1686079677422 -1926.638346049735 0
145 1923.479520617674 -391.7746278587877 0
146 1378.370332568651 -1329.992003941749 0
147 -1917.606522029213 -515.2375292350672 0
148 408.9981494857633 -358.4800505684073 0
149 202.3377918941121 -258.4800505684073 0
150 73.23035660149104 -504.1848262723554 0
151 -330.3460014307148 -1892.44212624376 0
152 675.0000000019807 37.5 0
153 180.0000000002557 45 0
154 1125.000000003526 37.5 0
155 1575.000000002798 37.5 0
156 2100.000000000621 25 0
157 -1574.999999998187 -37.5 0
158 -2099.999999999824 -25 0
159 -1124.999999996753 -37.5 0
160 -674.999999997593 -37.5 0
161 -179.9999999994326 -45 0
162 -640.1309613621278 529.3234839186047 0
163 1115.271247294817 596.939868960947 0
164 -1592.204879220306 449.3018533037633 0
165 -1823.609718754187 1241.371832807544 0
166 -107.7376540913394 1542.322222571975 0
167 1844.632027415104 992.4019379971788 0
168 -779.5123528810378 1578.660535785624 0
169 1019.632027418106 1611.583866797512 0
170 -433.0310007653848 1031.751674634432 0
171 81.64154281821322 953.9441588756895 0
172 -1000.065947002015 983.4145306951527 0
173 -211.9842979530945 693.7539397051735 0
174 -1124.999999996753 464.711431701942 0
175 690.8037917179934 525.7174217464509 0
176 1571.088459744952 589.4205712349477 0
177 332.2145118919881 490.7731673096385 0
178 -1896.217385236976 737.911380233214 0
179 1673.061149039535 1662.810375030741 0
180 854.6926883582114 998.0471434284457 0
181 112.9036086044016 649.4152997751567 0
182 -289.4210683499558 387.6040957908981 0
183 458.3854394199271 1359.126398123585 0
184 -1365.87771850705 1468.97646489616 0
185 -1491.801786913662 921.1220357911042 0
186 452.0840320089117 798.8609970678883 0
187 -1771.275405623623 1808.079834060217 0
188 -1957.684452891351 364.7477526587895 0
189 1330.748042890304 1117.790303930109 0
190 1943.144097432384 515.5313517665252 0
191 -147.8842136697074 207.5208191581796 0
192 0 -1931.735664109287 500
193 -645.1691081458639 -542.82806474608 500
194 675.0000000019807 -464.7114317034511 500
195 1815.530306219958 -1199.050425713811 500
196 -1743.314798572291 -1036.094063037995 500
197 1571.177364512755 -432.0368526685862 500
198 -1221.414777561115 -1590.698441383349 500
199 1131.621225937209 -1742.480113848046 500
200 561.571813242711 -1636.718876134004 500
201 868.2387195049575 -1207.279787596028 500
202 308.6881741640865 -1258.053510827565 500
203 516.0181367078004 -876.1989493955282 500
204 122.0994269129655 -929.2094648311297 500
205 -57.30799068824172 -1239.228320411329 500
206 -224.1673979490913 -942.3168918640299 500
207 -419.773090807527 -1264.047357740383 500
208 261.470398838014 -594.7854989870973 500
209 -50.36232419691964 -662.2911447855661 500
210 144.2712265989814 -1564.737190005384 500
211 -1115.931835200459 -534.4759243157454 500
212 -898.2241375671025 -885.1682622382696 500
213 -1544.717811574305 -544.2593335368415 500
214 1119.990304407859 -452.1648826641508 500
215 1337.171756977025 -861.9205583589724 500
216 903.2837835199246 -772.4551219436261 500
217 1904.239677932259 -731.2200363120816 500
218 -339.6451984330126 -707.1667560885755 500
219 -1723.095111606992 -1615.240677924467 500
220 -631.8363318962188 -1632.119107425239 500
221 -200.1694945745015 -440.2303938861834 500
222 1750.084956290636 -1752.15637316655 500
223 -220.4494247678812 -1515.846239990954 500
224 -1225.90265533988 -988.186948976421 500
225 -559.7985840777671 -946.6588336706105 500
226 -826.158262874935 -1217.813158572379 500
227 306.1686079677422 -1926.638346049735 500
228 1923.479520617674 -391.7746278587877 500
229 1378.370332568651 -1329.992003941749 500
230 -1917.606522029213 -515.2375292350672 500
231 408.9981494857633 -358.4800505684073 500
232 202.3377918941121 -258.4800505684073 500
233 73.23035660149104 -504.1848262723554 500
234 -330.3460014307148 -1892.44212624376 500
235 675.0000000019807 37.5 500
236 180.0000000002557 45 500
237 1125.000000003526 37.5 500
238 1575.000000002798 37.5 500
239 2100.000000000621 25 500
240 -1574.999999998187 -37.5 500
241 -2099.999999999824 -25 500
242 -1124.999999996753 -37.5 500
243 -674.999999997593 -37.5 500
244 -179.9999999994326 -45 500
245 -640.1309613621278 529.3234839186047 500
246 1115.271247294817 596.939868960947 500
247 -1592.204879220306 449.3018533037633 500
248 -1823.609718754187 1241.371832807544 500
249 -107.7376540913394 1542.322222571975 500
250 1844.632027415104 992.4019379971788 500
251 -779.5123528810378 1578.660535785624 500
252 1019.632027418106 1611.583866797512 500
253 -433.0310007653848 1031.751674634432 500
254 81.64154281821322 953.9441588756895 500
255 -1000.065947002015 983.4145306951527 500
256 -211.9842979530945 693.7539397051735 500
257 -1124.999999996753 464.711431701942 500
258 690.8037917179934 525.7174217464509 500
259 1571.088459744952 589.4205712349477 500
260 332.2145118919881 490.7731673096385 500
261 -1896.217385236976 737.911380233214 500
262 1673.061149039535 1662.810375030741 500
263 854.6926883582114 998.0471434284457 500
264 112.9036086044016 649.4152997751567 500
265 -289.4210683499558 387.6040957908981 500
266 458.3854394199271 1359.126398123585 500
267 -1365.87771850705 1468.97646489616 500
268 -1491.801786913662 921.1220357911042 500
269 452.0840320089117 798.8609970678883 500
270 -1771.275405623623 1808.079834060217 500
271 -1957.684452891351 364.7477526587895 500
272 1330.748042890304 1117.790303930109 500
273 1943.144097432384 515.5313517665252 500
274 -147.8842136697074 207.5208191581796 500
$EndNodes
$Elements
769
1 1 2 1 16 16 15
2 1 2 1 19 18 17
3 1 2 1 21 17 16
4 1 2 1 22 19 18
5 1 2 1 23 20 15
6 1 2 1 30 26 27
7 1 2 1 33 29 27
8 1 2 1 68 20 29
9 1 2 1 81 33 34
10 1 2 1 82 34 26
11 1 2 1 157 40 33
12 1 2 1 184 19 40
13 2 2 995 1 62 16 149
14 2 2 995 1 109 10 144
15 2 2 995 1 110 135 138
16 2 2 995 1 113 115 141
17 2 2 995 1 117 118 119
18 2 2 995 1 117 119 127
19 2 2 995 1 118 132 133
20 2 2 995 1 119 120 121
21 2 2 995 1 132 112 134
22 2 2 995 1 120 111 125
23 2 2 995 1 63 110 138
24 2 2 995 1 119 118 120
25 2 2 995 1 9 109 151
26 2 2 995 1 58 1 136
27 2 2 995 1 129 141 143
28 2 2 995 1 141 115 143
29 2 2 995 1 132 118 146
30 2 2 995 1 121 120 125
31 2 2 995 1 109 127 140
32 2 2 995 1 121 125 126
33 2 2 995 1 43 117 144
34 2 2 995 1 115 113 136
35 2 2 995 1 117 116 118
36 2 2 995 1 43 116 117
37 2 2 995 1 57 58 113
38 2 2 995 1 16 15 149
39 2 2 995 1 125 111 148
40 2 2 995 1 119 121 122
41 2 2 995 1 43 44 116
42 2 2 995 1 114 132 134
43 2 2 995 1 125 149 150
44 2 2 995 1 1 41 136
45 2 2 995 1 45 46 112
46 2 2 995 1 41 42 115
47 2 2 995 1 117 127 144
48 2 2 995 1 123 121 126
49 2 2 995 1 61 62 111
50 2 2 995 1 20 138 150
51 2 2 995 1 57 113 147
52 2 2 995 1 112 46 134
53 2 2 995 1 63 64 110
54 2 2 995 1 126 125 150
55 2 2 995 1 61 111 131
56 2 2 995 1 119 122 127
57 2 2 995 1 112 132 146
58 2 2 995 1 2 45 139
59 2 2 995 1 116 139 146
60 2 2 995 1 60 61 131
61 2 2 995 1 114 60 131
62 2 2 995 1 139 112 146
63 2 2 995 1 110 64 128
64 2 2 995 1 109 140 151
65 2 2 995 1 122 121 123
66 2 2 995 1 116 44 139
67 2 2 995 1 111 120 133
68 2 2 995 1 149 20 150
69 2 2 995 1 114 131 132
70 2 2 995 1 123 126 135
71 2 2 995 1 59 60 114
72 2 2 995 1 64 65 128
73 2 2 995 1 65 66 130
74 2 2 995 1 46 47 134
75 2 2 995 1 41 115 136
76 2 2 995 1 113 130 147
77 2 2 995 1 115 42 137
78 2 2 995 1 111 62 148
79 2 2 995 1 3 59 145
80 2 2 995 1 47 3 145
81 2 2 995 1 110 128 129
82 2 2 995 1 118 116 146
83 2 2 995 1 128 65 130
84 2 2 995 1 8 57 147
85 2 2 995 1 132 131 133
86 2 2 995 1 44 2 139
87 2 2 995 1 131 111 133
88 2 2 995 1 124 137 140
89 2 2 995 1 124 142 143
90 2 2 995 1 138 126 150
91 2 2 995 1 120 118 133
92 2 2 995 1 127 109 144
93 2 2 995 1 66 8 147
94 2 2 995 1 125 148 149
95 2 2 995 1 113 58 136
96 2 2 995 1 45 112 139
97 2 2 995 1 122 123 124
98 2 2 995 1 15 20 149
99 2 2 995 1 137 42 151
100 2 2 995 1 135 126 138
101 2 2 995 1 137 124 143
102 2 2 995 1 142 129 143
103 2 2 995 1 110 129 142
104 2 2 995 1 127 122 140
105 2 2 995 1 128 130 141
106 2 2 995 1 135 110 142
107 2 2 995 1 129 128 141
108 2 2 995 1 124 123 142
109 2 2 995 1 59 114 145
110 2 2 995 1 130 113 141
111 2 2 995 1 130 66 147
112 2 2 995 1 123 135 142
113 2 2 995 1 134 47 145
114 2 2 995 1 140 137 151
115 2 2 995 1 122 124 140
116 2 2 995 1 114 134 145
117 2 2 995 1 115 137 143
118 2 2 995 1 9 10 109
119 2 2 995 1 148 62 149
120 2 2 995 1 42 9 151
121 2 2 995 1 10 43 144
122 2 2 995 1 20 15 138
123 2 2 995 1 15 63 138
124 2 2 995 2 67 59 156
125 2 2 995 2 62 70 153
126 2 2 995 2 60 68 154
127 2 2 995 2 61 69 152
128 2 2 995 2 70 62 152
129 2 2 995 2 59 67 155
130 2 2 995 2 68 60 155
131 2 2 995 2 69 61 154
132 2 2 995 2 59 3 156
133 2 2 995 2 70 18 153
134 2 2 995 2 60 59 155
135 2 2 995 2 61 60 154
136 2 2 995 2 62 61 152
137 2 2 995 2 67 68 155
138 2 2 995 2 68 69 154
139 2 2 995 2 69 70 152
140 2 2 995 2 3 11 156
141 2 2 995 2 12 4 156
142 2 2 995 2 4 67 156
143 2 2 995 2 11 12 156
144 2 2 995 2 17 16 153
145 2 2 995 2 16 62 153
146 2 2 995 2 18 17 153
147 2 2 995 3 66 74 158
148 2 2 995 3 71 63 161
149 2 2 995 3 64 72 159
150 2 2 995 3 65 73 157
151 2 2 995 3 74 66 157
152 2 2 995 3 63 71 160
153 2 2 995 3 72 64 160
154 2 2 995 3 73 65 159
155 2 2 995 3 74 7 158
156 2 2 995 3 63 15 161
157 2 2 995 3 64 63 160
158 2 2 995 3 65 64 159
159 2 2 995 3 66 65 157
160 2 2 995 3 71 72 160
161 2 2 995 3 72 73 159
162 2 2 995 3 73 74 157
163 2 2 995 3 7 13 158
164 2 2 995 3 14 8 158
165 2 2 995 3 8 66 158
166 2 2 995 3 13 14 158
167 2 2 995 3 15 16 161
168 2 2 995 3 16 17 161
169 2 2 995 3 17 71 161
170 2 2 995 4 51 166 183
171 2 2 995 4 71 17 191
172 2 2 995 4 169 51 183
173 2 2 995 4 173 19 181
174 2 2 995 4 162 170 172
175 2 2 995 4 163 176 189
176 2 2 995 4 19 182 191
177 2 2 995 4 166 52 168
178 2 2 995 4 166 168 170
179 2 2 995 4 170 162 173
180 2 2 995 4 51 52 166
181 2 2 995 4 166 170 171
182 2 2 995 4 19 177 181
183 2 2 995 4 171 170 173
184 2 2 995 4 162 172 174
185 2 2 995 4 50 51 169
186 2 2 995 4 168 53 184
187 2 2 995 4 19 173 182
188 2 2 995 4 167 176 190
189 2 2 995 4 48 167 190
190 2 2 995 4 176 167 189
191 2 2 995 4 173 162 182
192 2 2 995 4 52 53 168
193 2 2 995 4 48 49 167
194 2 2 995 4 164 174 185
195 2 2 995 4 180 163 189
196 2 2 995 4 170 168 172
197 2 2 995 4 50 169 179
198 2 2 995 4 49 5 179
199 2 2 995 4 179 169 189
200 2 2 995 4 174 172 185
201 2 2 995 4 53 6 187
202 2 2 995 4 54 55 165
203 2 2 995 4 74 73 164
204 2 2 995 4 73 72 174
205 2 2 995 4 166 171 183
206 2 2 995 4 72 71 162
207 2 2 995 4 165 55 178
208 2 2 995 4 70 69 175
209 2 2 995 4 55 56 178
210 2 2 995 4 181 177 186
211 2 2 995 4 164 73 174
212 2 2 995 4 4 48 190
213 2 2 995 4 7 74 188
214 2 2 995 4 56 7 188
215 2 2 995 4 72 162 174
216 2 2 995 4 6 54 187
217 2 2 995 4 5 50 179
218 2 2 995 4 171 173 181
219 2 2 995 4 184 53 187
220 2 2 995 4 68 67 176
221 2 2 995 4 69 68 163
222 2 2 995 4 70 175 177
223 2 2 995 4 167 49 179
224 2 2 995 4 180 183 186
225 2 2 995 4 69 163 175
226 2 2 995 4 183 171 186
227 2 2 995 4 171 181 186
228 2 2 995 4 165 178 185
229 2 2 995 4 178 164 185
230 2 2 995 4 175 163 180
231 2 2 995 4 172 168 184
232 2 2 995 4 163 68 176
233 2 2 995 4 162 71 182
234 2 2 995 4 54 165 187
235 2 2 995 4 175 180 186
236 2 2 995 4 172 184 185
237 2 2 995 4 176 67 190
238 2 2 995 4 165 184 187
239 2 2 995 4 74 164 188
240 2 2 995 4 167 179 189
241 2 2 995 4 184 165 185
242 2 2 995 4 67 4 190
243 2 2 995 4 182 71 191
244 2 2 995 4 178 56 188
245 2 2 995 4 180 169 183
246 2 2 995 4 164 178 188
247 2 2 995 4 177 175 186
248 2 2 995 4 18 19 191
249 2 2 995 4 169 180 189
250 2 2 995 4 17 18 191
251 2 2 995 4 70 19 18
252 2 2 995 4 19 70 177
253 2 2 996 75 85 26 232
254 2 2 996 75 192 23 227
255 2 2 996 75 193 218 221
256 2 2 996 75 196 198 224
257 2 2 996 75 200 201 202
258 2 2 996 75 200 202 210
259 2 2 996 75 201 215 216
260 2 2 996 75 202 203 204
261 2 2 996 75 215 195 217
262 2 2 996 75 203 194 208
263 2 2 996 75 86 193 221
264 2 2 996 75 202 201 203
265 2 2 996 75 22 192 234
266 2 2 996 75 91 21 219
267 2 2 996 75 212 224 226
268 2 2 996 75 224 198 226
269 2 2 996 75 215 201 229
270 2 2 996 75 204 203 208
271 2 2 996 75 192 210 223
272 2 2 996 75 204 208 209
273 2 2 996 75 77 200 227
274 2 2 996 75 198 196 219
275 2 2 996 75 200 199 201
276 2 2 996 75 77 199 200
277 2 2 996 75 90 91 196
278 2 2 996 75 26 27 232
279 2 2 996 75 208 194 231
280 2 2 996 75 202 204 205
281 2 2 996 75 77 78 199
282 2 2 996 75 197 215 217
283 2 2 996 75 208 232 233
284 2 2 996 75 21 75 219
285 2 2 996 75 79 80 195
286 2 2 996 75 75 76 198
287 2 2 996 75 200 210 227
288 2 2 996 75 206 204 209
289 2 2 996 75 84 85 194
290 2 2 996 75 29 221 233
291 2 2 996 75 90 196 230
292 2 2 996 75 195 80 217
293 2 2 996 75 86 87 193
294 2 2 996 75 209 208 233
295 2 2 996 75 84 194 214
296 2 2 996 75 202 205 210
297 2 2 996 75 195 215 229
298 2 2 996 75 24 79 222
299 2 2 996 75 199 222 229
300 2 2 996 75 83 84 214
301 2 2 996 75 197 83 214
302 2 2 996 75 222 195 229
303 2 2 996 75 193 87 211
304 2 2 996 75 192 223 234
305 2 2 996 75 205 204 206
306 2 2 996 75 199 78 222
307 2 2 996 75 194 203 216
308 2 2 996 75 232 29 233
309 2 2 996 75 197 214 215
310 2 2 996 75 206 209 218
311 2 2 996 75 82 83 197
312 2 2 996 75 87 88 211
313 2 2 996 75 88 89 213
314 2 2 996 75 80 81 217
315 2 2 996 75 75 198 219
316 2 2 996 75 196 213 230
317 2 2 996 75 198 76 220
318 2 2 996 75 194 85 231
319 2 2 996 75 25 82 228
320 2 2 996 75 81 25 228
321 2 2 996 75 193 211 212
322 2 2 996 75 201 199 229
323 2 2 996 75 211 88 213
324 2 2 996 75 28 90 230
325 2 2 996 75 215 214 216
326 2 2 996 75 78 24 222
327 2 2 996 75 214 194 216
328 2 2 996 75 207 220 223
329 2 2 996 75 207 225 226
330 2 2 996 75 221 209 233
331 2 2 996 75 203 201 216
332 2 2 996 75 210 192 227
333 2 2 996 75 89 28 230
334 2 2 996 75 208 231 232
335 2 2 996 75 196 91 219
336 2 2 996 75 79 195 222
337 2 2 996 75 205 206 207
338 2 2 996 75 27 29 232
339 2 2 996 75 220 76 234
340 2 2 996 75 218 209 221
341 2 2 996 75 220 207 226
342 2 2 996 75 225 212 226
343 2 2 996 75 193 212 225
344 2 2 996 75 210 205 223
345 2 2 996 75 211 213 224
346 2 2 996 75 218 193 225
347 2 2 996 75 212 211 224
348 2 2 996 75 207 206 225
349 2 2 996 75 82 197 228
350 2 2 996 75 213 196 224
351 2 2 996 75 213 89 230
352 2 2 996 75 206 218 225
353 2 2 996 75 217 81 228
354 2 2 996 75 223 220 234
355 2 2 996 75 205 207 223
356 2 2 996 75 197 217 228
357 2 2 996 75 198 220 226
358 2 2 996 75 22 23 192
359 2 2 996 75 231 85 232
360 2 2 996 75 76 22 234
361 2 2 996 75 23 77 227
362 2 2 996 75 29 27 221
363 2 2 996 75 27 86 221
364 2 2 996 112 92 82 239
365 2 2 996 112 85 95 236
366 2 2 996 112 83 93 237
367 2 2 996 112 84 94 235
368 2 2 996 112 95 85 235
369 2 2 996 112 82 92 238
370 2 2 996 112 93 83 238
371 2 2 996 112 94 84 237
372 2 2 996 112 82 25 239
373 2 2 996 112 95 33 236
374 2 2 996 112 83 82 238
375 2 2 996 112 84 83 237
376 2 2 996 112 85 84 235
377 2 2 996 112 92 93 238
378 2 2 996 112 93 94 237
379 2 2 996 112 94 95 235
380 2 2 996 112 25 30 239
381 2 2 996 112 31 32 239
382 2 2 996 112 32 92 239
383 2 2 996 112 30 31 239
384 2 2 996 112 34 26 236
385 2 2 996 112 26 85 236
386 2 2 996 112 33 34 236
387 2 2 996 149 89 99 241
388 2 2 996 149 96 86 244
389 2 2 996 149 87 97 242
390 2 2 996 149 88 98 240
391 2 2 996 149 99 89 240
392 2 2 996 149 86 96 243
393 2 2 996 149 97 87 243
394 2 2 996 149 98 88 242
395 2 2 996 149 99 35 241
396 2 2 996 149 86 27 244
397 2 2 996 149 87 86 243
398 2 2 996 149 88 87 242
399 2 2 996 149 89 88 240
400 2 2 996 149 96 97 243
401 2 2 996 149 97 98 242
402 2 2 996 149 98 99 240
403 2 2 996 149 35 36 241
404 2 2 996 149 37 28 241
405 2 2 996 149 28 89 241
406 2 2 996 149 36 37 241
407 2 2 996 149 27 26 244
408 2 2 996 149 26 34 244
409 2 2 996 149 34 96 244
410 2 2 996 191 103 249 266
411 2 2 996 191 96 34 274
412 2 2 996 191 252 103 266
413 2 2 996 191 256 40 264
414 2 2 996 191 245 253 255
415 2 2 996 191 246 259 272
416 2 2 996 191 40 265 274
417 2 2 996 191 249 104 251
418 2 2 996 191 249 251 253
419 2 2 996 191 253 245 256
420 2 2 996 191 103 104 249
421 2 2 996 191 249 253 254
422 2 2 996 191 40 260 264
423 2 2 996 191 254 253 256
424 2 2 996 191 245 255 257
425 2 2 996 191 102 103 252
426 2 2 996 191 251 105 267
427 2 2 996 191 40 256 265
428 2 2 996 191 250 259 273
429 2 2 996 191 100 250 273
430 2 2 996 191 259 250 272
431 2 2 996 191 256 245 265
432 2 2 996 191 104 105 251
433 2 2 996 191 100 101 250
434 2 2 996 191 247 257 268
435 2 2 996 191 263 246 272
436 2 2 996 191 253 251 255
437 2 2 996 191 102 252 262
438 2 2 996 191 101 38 262
439 2 2 996 191 262 252 272
440 2 2 996 191 257 255 268
441 2 2 996 191 105 39 270
442 2 2 996 191 106 107 248
443 2 2 996 191 99 98 247
444 2 2 996 191 98 97 257
445 2 2 996 191 249 254 266
446 2 2 996 191 97 96 245
447 2 2 996 191 248 107 261
448 2 2 996 191 95 94 258
449 2 2 996 191 107 108 261
450 2 2 996 191 264 260 269
451 2 2 996 191 247 98 257
452 2 2 996 191 32 100 273
453 2 2 996 191 35 99 271
454 2 2 996 191 108 35 271
455 2 2 996 191 97 245 257
456 2 2 996 191 39 106 270
457 2 2 996 191 38 102 262
458 2 2 996 191 254 256 264
459 2 2 996 191 267 105 270
460 2 2 996 191 93 92 259
461 2 2 996 191 94 93 246
462 2 2 996 191 95 258 260
463 2 2 996 191 250 101 262
464 2 2 996 191 263 266 269
465 2 2 996 191 94 246 258
466 2 2 996 191 266 254 269
467 2 2 996 191 254 264 269
468 2 2 996 191 248 261 268
469 2 2 996 191 261 247 268
470 2 2 996 191 258 246 263
471 2 2 996 191 255 251 267
472 2 2 996 191 246 93 259
473 2 2 996 191 245 96 265
474 2 2 996 191 106 248 270
475 2 2 996 191 258 263 269
476 2 2 996 191 255 267 268
477 2 2 996 191 259 92 273
478 2 2 996 191 248 267 270
479 2 2 996 191 99 247 271
480 2 2 996 191 250 262 272
481 2 2 996 191 267 248 268
482 2 2 996 191 92 32 273
483 2 2 996 191 265 96 274
484 2 2 996 191 261 108 271
485 2 2 996 191 263 252 266
486 2 2 996 191 247 261 271
487 2 2 996 191 260 258 269
488 2 2 996 191 33 40 274
489 2 2 996 191 252 263 272
490 2 2 996 191 34 33 274
491 2 2 996 191 95 40 33
492 2 2 996 191 40 95 260
493 3 2 993 38 1 41 75 21
494 3 2 993 38 41 42 76 75
495 3 2 993 38 42 9 22 76
496 3 2 998 42 9 10 23 22
497 3 2 993 46 10 43 77 23
498 3 2 993 46 43 44 78 77
499 3 2 993 46 44 2 24 78
500 3 2 992 50 2 45 79 24
501 3 2 992 50 45 46 80 79
502 3 2 992 50 46 47 81 80
503 3 2 992 50 47 3 25 81
504 3 2 9991 58 16 15 27 26
505 3 2 991 66 8 57 90 28
506 3 2 991 66 57 58 91 90
507 3 2 991 66 58 1 21 91
508 3 2 9991 70 20 15 27 29
509 3 2 992 87 3 11 30 25
510 3 2 999 91 11 12 31 30
511 3 2 992 95 12 4 32 31
512 3 2 9991 103 18 17 34 33
513 3 2 9991 107 17 16 26 34
514 3 2 991 128 7 13 36 35
515 3 2 999 132 13 14 37 36
516 3 2 991 136 14 8 28 37
517 3 2 992 162 4 48 100 32
518 3 2 992 162 48 49 101 100
519 3 2 992 162 49 5 38 101
520 3 2 994 166 5 50 102 38
521 3 2 994 166 50 51 103 102
522 3 2 994 166 51 52 104 103
523 3 2 994 166 52 53 105 104
524 3 2 994 166 53 6 39 105
525 3 2 991 170 6 54 106 39
526 3 2 991 170 54 55 107 106
527 3 2 991 170 55 56 108 107
528 3 2 991 170 56 7 35 108
529 3 2 9991 186 19 18 33 40
530 6 2 99992 1 62 16 149 85 26 232
531 6 2 99992 1 109 10 144 192 23 227
532 6 2 99992 1 110 135 138 193 218 221
533 6 2 99992 1 113 115 141 196 198 224
534 6 2 99992 1 117 118 119 200 201 202
535 6 2 99992 1 117 119 127 200 202 210
536 6 2 99992 1 118 132 133 201 215 216
537 6 2 99992 1 119 120 121 202 203 204
538 6 2 99992 1 132 112 134 215 195 217
539 6 2 99992 1 120 111 125 203 194 208
540 6 2 99992 1 63 110 138 86 193 221
541 6 2 99992 1 119 118 120 202 201 203
542 6 2 99992 1 9 109 151 22 192 234
543 6 2 99992 1 58 1 136 91 21 219
544 6 2 99992 1 129 141 143 212 224 226
545 6 2 99992 1 141 115 143 224 198 226
546 6 2 99992 1 132 118 146 215 201 229
547 6 2 99992 1 121 120 125 204 203 208
548 6 2 99992 1 109 127 140 192 210 223
549 6 2 99992 1 121 125 126 204 208 209
550 6 2 99992 1 43 117 144 77 200 227
551 6 2 99992 1 115 113 136 198 196 219
552 6 2 99992 1 117 116 118 200 199 201
553 6 2 99992 1 43 116 117 77 199 200
554 6 2 99992 1 57 58 113 90 91 196
555 6 2 99992 1 16 15 149 26 27 232
556 6 2 99992 1 125 111 148 208 194 231
557 6 2 99992 1 119 121 122 202 204 205
558 6 2 99992 1 43 44 116 77 78 199
559 6 2 99992 1 114 132 134 197 215 217
560 6 2 99992 1 125 149 150 208 232 233
561 6 2 99992 1 1 41 136 21 75 219
562 6 2 99992 1 45 46 112 79 80 195
563 6 2 99992 1 41 42 115 75 76 198
564 6 2 99992 1 117 127 144 200 210 227
565 6 2 99992 1 123 121 126 206 204 209
566 6 2 99992 1 61 62 111 84 85 194
567 6 2 99992 1 20 138 150 29 221 233
568 6 2 99992 1 57 113 147 90 196 230
569 6 2 99992 1 112 46 134 195 80 217
570 6 2 99992 1 63 64 110 86 87 193
571 6 2 99992 1 126 125 150 209 208 233
572 6 2 99992 1 61 111 131 84 194 214
573 6 2 99992 1 119 122 127 202 205 210
574 6 2 99992 1 112 132 146 195 215 229
575 6 2 99992 1 2 45 139 24 79 222
576 6 2 99992 1 116 139 146 199 222 229
577 6 2 99992 1 60 61 131 83 84 214
578 6 2 99992 1 114 60 131 197 83 214
579 6 2 99992 1 139 112 146 222 195 229
580 6 2 99992 1 110 64 128 193 87 211
581 6 2 99992 1 109 140 151 192 223 234
582 6 2 99992 1 122 121 123 205 204 206
583 6 2 99992 1 116 44 139 199 78 222
584 6 2 99992 1 111 120 133 194 203 216
585 6 2 99992 1 149 20 150 232 29 233
586 6 2 99992 1 114 131 132 197 214 215
587 6 2 99992 1 123 126 135 206 209 218
588 6 2 99992 1 59 60 114 82 83 197
589 6 2 99992 1 64 65 128 87 88 211
590 6 2 99992 1 65 66 130 88 89 213
591 6 2 99992 1 46 47 134 80 81 217
592 6 2 99992 1 41 115 136 75 198 219
593 6 2 99992 1 113 130 147 196 213 230
594 6 2 99992 1 115 42 137 198 76 220
595 6 2 99992 1 111 62 148 194 85 231
596 6 2 99992 1 3 59 145 25 82 228
597 6 2 99992 1 47 3 145 81 25 228
598 6 2 99992 1 110 128 129 193 211 212
599 6 2 99992 1 118 116 146 201 199 229
600 6 2 99992 1 128 65 130 211 88 213
601 6 2 99992 1 8 57 147 28 90 230
602 6 2 99992 1 132 131 133 215 214 216
603 6 2 99992 1 44 2 139 78 24 222
604 6 2 99992 1 131 111 133 214 194 216
605 6 2 99992 1 124 137 140 207 220 223
606 6 2 99992 1 124 142 143 207 225 226
607 6 2 99992 1 138 126 150 221 209 233
608 6 2 99992 1 120 118 133 203 201 216
609 6 2 99992 1 127 109 144 210 192 227
610 6 2 99992 1 66 8 147 89 28 230
611 6 2 99992 1 125 148 149 208 231 232
612 6 2 99992 1 113 58 136 196 91 219
613 6 2 99992 1 45 112 139 79 195 222
614 6 2 99992 1 122 123 124 205 206 207
615 6 2 99992 1 15 20 149 27 29 232
616 6 2 99992 1 137 42 151 220 76 234
617 6 2 99992 1 135 126 138 218 209 221
618 6 2 99992 1 137 124 143 220 207 226
619 6 2 99992 1 142 129 143 225 212 226
620 6 2 99992 1 110 129 142 193 212 225
621 6 2 99992 1 127 122 140 210 205 223
622 6 2 99992 1 128 130 141 211 213 224
623 6 2 99992 1 135 110 142 218 193 225
624 6 2 99992 1 129 128 141 212 211 224
625 6 2 99992 1 124 123 142 207 206 225
626 6 2 99992 1 59 114 145 82 197 228
627 6 2 99992 1 130 113 141 213 196 224
628 6 2 99992 1 130 66 147 213 89 230
629 6 2 99992 1 123 135 142 206 218 225
630 6 2 99992 1 134 47 145 217 81 228
631 6 2 99992 1 140 137 151 223 220 234
632 6 2 99992 1 122 124 140 205 207 223
633 6 2 99992 1 114 134 145 197 217 228
634 6 2 99992 1 115 137 143 198 220 226
635 6 2 99992 1 9 10 109 22 23 192
636 6 2 99992 1 148 62 149 231 85 232
637 6 2 99992 1 42 9 151 76 22 234
638 6 2 99992 1 10 43 144 23 77 227
639 6 2 99992 1 20 15 138 29 27 221
640 6 2 99992 1 15 63 138 27 86 221
641 6 2 99991 2 67 59 156 92 82 239
642 6 2 99991 2 62 70 153 85 95 236
643 6 2 99991 2 60 68 154 83 93 237
644 6 2 99991 2 61 69 152 84 94 235
645 6 2 99991 2 70 62 152 95 85 235
646 6 2 99991 2 59 67 155 82 92 238
647 6 2 99991 2 68 60 155 93 83 238
648 6 2 99991 2 69 61 154 94 84 237
649 6 2 99991 2 59 3 156 82 25 239
650 6 2 99991 2 70 18 153 95 33 236
651 6 2 99991 2 60 59 155 83 82 238
652 6 2 99991 2 61 60 154 84 83 237
653 6 2 99991 2 62 61 152 85 84 235
654 6 2 99991 2 67 68 155 92 93 238
655 6 2 99991 2 68 69 154 93 94 237
656 6 2 99991 2 69 70 152 94 95 235
657 6 2 99991 2 3 11 156 25 30 239
658 6 2 99991 2 12 4 156 31 32 239
659 6 2 99991 2 4 67 156 32 92 239
660 6 2 99991 2 11 12 156 30 31 239
661 6 2 99991 2 17 16 153 34 26 236
662 6 2 99991 2 16 62 153 26 85 236
663 6 2 99991 2 18 17 153 33 34 236
664 6 2 99991 3 66 74 158 89 99 241
665 6 2 99991 3 71 63 161 96 86 244
666 6 2 99991 3 64 72 159 87 97 242
667 6 2 99991 3 65 73 157 88 98 240
668 6 2 99991 3 74 66 157 99 89 240
669 6 2 99991 3 63 71 160 86 96 243
670 6 2 99991 3 72 64 160 97 87 243
671 6 2 99991 3 73 65 159 98 88 242
672 6 2 99991 3 74 7 158 99 35 241
673 6 2 99991 3 63 15 161 86 27 244
674 6 2 99991 3 64 63 160 87 86 243
675 6 2 99991 3 65 64 159 88 87 242
676 6 2 99991 3 66 65 157 89 88 240
677 6 2 99991 3 71 72 160 96 97 243
678 6 2 99991 3 72 73 159 97 98 242
679 6 2 99991 3 73 74 157 98 99 240
680 6 2 99991 3 7 13 158 35 36 241
681 6 2 99991 3 14 8 158 37 28 241
682 6 2 99991 3 8 66 158 28 89 241
683 6 2 99991 3 13 14 158 36 37 241
684 6 2 99991 3 15 16 161 27 26 244
685 6 2 99991 3 16 17 161 26 34 244
686 6 2 99991 3 17 71 161 34 96 244
687 6 2 99992 4 51 166 183 103 249 266
688 6 2 99992 4 71 17 191 96 34 274
689 6 2 99992 4 169 51 183 252 103 266
690 6 2 99992 4 173 19 181 256 40 264
691 6 2 99992 4 162 170 172 245 253 255
692 6 2 99992 4 163 176 189 246 259 272
693 6 2 99992 4 19 182 191 40 265 274
694 6 2 99992 4 166 52 168 249 104 251
695 6 2 99992 4 166 168 170 249 251 253
696 6 2 99992 4 170 162 173 253 245 256
697 6 2 99992 4 51 52 166 103 104 249
698 6 2 99992 4 166 170 171 249 253 254
699 6 2 99992 4 19 177 181 40 260 264
700 6 2 99992 4 171 170 173 254 253 256
701 6 2 99992 4 162 172 174 245 255 257
702 6 2 99992 4 50 51 169 102 103 252
703 6 2 99992 4 168 53 184 251 105 267
704 6 2 99992 4 19 173 182 40 256 265
705 6 2 99992 4 167 176 190 250 259 273
706 6 2 99992 4 48 167 190 100 250 273
707 6 2 99992 4 176 167 189 259 250 272
708 6 2 99992 4 173 162 182 256 245 265
709 6 2 99992 4 52 53 168 104 105 251
710 6 2 99992 4 48 49 167 100 101 250
711 6 2 99992 4 164 174 185 247 257 268
712 6 2 99992 4 180 163 189 263 246 272
713 6 2 99992 4 170 168 172 253 251 255
714 6 2 99992 4 50 169 179 102 252 262
715 6 2 99992 4 49 5 179 101 38 262
716 6 2 99992 4 179 169 189 262 252 272
717 6 2 99992 4 174 172 185 257 255 268
718 6 2 99992 4 53 6 187 105 39 270
719 6 2 99992 4 54 55 165 106 107 248
720 6 2 99992 4 74 73 164 99 98 247
721 6 2 99992 4 73 72 174 98 97 257
722 6 2 99992 4 166 171 183 249 254 266
723 6 2 99992 4 72 71 162 97 96 245
724 6 2 99992 4 165 55 178 248 107 261
725 6 2 99992 4 70 69 175 95 94 258
726 6 2 99992 4 55 56 178 107 108 261
727 6 2 99992 4 181 177 186 264 260 269
728 6 2 99992 4 164 73 174 247 98 257
729 6 2 99992 4 4 48 190 32 100 273
730 6 2 99992 4 7 74 188 35 99 271
731 6 2 99992 4 56 7 188 108 35 271
732 6 2 99992 4 72 162 174 97 245 257
733 6 2 99992 4 6 54 187 39 106 270
734 6 2 99992 4 5 50 179 38 102 262
735 6 2 99992 4 171 173 181 254 256 264
736 6 2 99992 4 184 53 187 267 105 270
737 6 2 99992 4 68 67 176 93 92 259
738 6 2 99992 4 69 68 163 94 93 246
739 6 2 99992 4 70 175 177 95 258 260
740 6 2 99992 4 167 49 179 250 101 262
741 6 2 99992 4 180 183 186 263 266 269
742 6 2 99992 4 69 163 175 94 246 258
743 6 2 99992 4 183 171 186 266 254 269
744 6 2 99992 4 171 181 186 254 264 269
745 6 2 99992 4 165 178 185 248 261 268
746 6 2 99992 4 178 164 185 261 247 268
747 6 2 99992 4 175 163 180 258 246 263
748 6 2 99992 4 172 168 184 255 251 267
749 6 2 99992 4 163 68 176 246 93 259
750 6 2 99992 4 162 71 182 245 96 265
751 6 2 99992 4 54 165 187 106 248 270
752 6 2 99992 4 175 180 186 258 263 269
753 6 2 99992 4 172 184 185 255 267 268
754 6 2 99992 4 176 67 190 259 92 273
755 6 2 99992 4 165 184 187 248 267 270
756 6 2 99992 4 74 164 188 99 247 271
757 6 2 99992 4 167 179 189 250 262 272
758 6 2 99992 4 184 165 185 267 248 268
759 6 2 99992 4 67 4 190 92 32 273
760 6 2 99992 4 182 71 191 265 96 274
761 6 2 99992 4 178 56 188 261 108 271
762 6 2 99992 4 180 169 183 263 252 266
763 6 2 99992 4 164 178 188 247 261 271
764 6 2 99992 4 177 175 186 260 258 269
765 6 2 99992 4 18 19 191 33 40 274
766 6 2 99992 4 169 180 189 252 263 272
767 6 2 99992 4 17 18 191 34 33 274
768 6 2 99992 4 70 19 18 95 40 33
769 6 2 99992 4 19 70 177 40 95 260
$EndElements
