# vtk DataFile Version 5.1
vtk output
ASCII
DATASET POLYDATA
POINTS 100 float
600 465 -50 604.387 465.276 -50 608.704 466.1 -50 
612.884 467.458 -50 616.861 469.329 -50 620.573 471.684 -50 
623.959 474.486 -50 626.968 477.69 -50 629.551 481.246 -50 
631.669 485.098 -50 633.287 489.184 -50 634.38 493.442 -50 
634.931 497.802 -50 634.931 502.198 -50 634.38 506.558 -50 
633.287 510.816 -50 631.669 514.902 -50 629.551 518.754 -50 
626.968 522.31 -50 623.959 525.514 -50 620.573 528.316 -50 
616.861 530.671 -50 612.884 532.542 -50 608.704 533.9 -50 
604.387 534.724 -50 600 535 -50 595.613 534.724 -50 
591.296 533.9 -50 587.116 532.542 -50 583.139 530.671 -50 
579.427 528.316 -50 576.041 525.514 -50 573.032 522.31 -50 
570.449 518.754 -50 568.331 514.902 -50 566.713 510.816 -50 
565.62 506.558 -50 565.069 502.198 -50 565.069 497.802 -50 
565.62 493.442 -50 566.713 489.184 -50 568.331 485.098 -50 
570.449 481.246 -50 573.032 477.69 -50 576.041 474.486 -50 
579.427 471.684 -50 583.139 469.329 -50 587.116 467.458 -50 
591.296 466.1 -50 595.613 465.276 -50 600 465 -1050 
604.387 465.276 -1050 608.704 466.1 -1050 612.884 467.458 -1050 
616.861 469.329 -1050 620.573 471.684 -1050 623.959 474.486 -1050 
626.968 477.69 -1050 629.551 481.246 -1050 631.669 485.098 -1050 
633.287 489.184 -1050 634.38 493.442 -1050 634.931 497.802 -1050 
634.931 502.198 -1050 634.38 506.558 -1050 633.287 510.816 -1050 
631.669 514.902 -1050 629.551 518.754 -1050 626.968 522.31 -1050 
623.959 525.514 -1050 620.573 528.316 -1050 616.861 530.671 -1050 
612.884 532.542 -1050 608.704 533.9 -1050 604.387 534.724 -1050 
600 535 -1050 595.613 534.724 -1050 591.296 533.9 -1050 
587.116 532.542 -1050 583.139 530.671 -1050 579.427 528.316 -1050 
576.041 525.514 -1050 573.032 522.31 -1050 570.449 518.754 -1050 
568.331 514.902 -1050 566.713 510.816 -1050 565.62 506.558 -1050 
565.069 502.198 -1050 565.069 497.802 -1050 565.62 493.442 -1050 
566.713 489.184 -1050 568.331 485.098 -1050 570.449 481.246 -1050 
573.032 477.69 -1050 576.041 474.486 -1050 579.427 471.684 -1050 
583.139 469.329 -1050 587.116 467.458 -1050 591.296 466.1 -1050 
595.613 465.276 -1050 
TRIANGLE_STRIPS 51 200
OFFSETS vtktypeint64
0 4 8 12 16 20 24 28 32 
36 40 44 48 52 56 60 64 68 
72 76 80 84 88 92 96 100 104 
108 112 116 120 124 128 132 136 140 
144 148 152 156 160 164 168 172 176 
180 184 188 192 196 200 
CONNECTIVITY vtktypeint64
1 0 51 50 2 1 52 51 3 
2 53 52 4 3 54 53 5 4 
55 54 6 5 56 55 7 6 57 
56 8 7 58 57 9 8 59 58 
10 9 60 59 11 10 61 60 12 
11 62 61 13 12 63 62 14 13 
64 63 15 14 65 64 16 15 66 
65 17 16 67 66 18 17 68 67 
19 18 69 68 20 19 70 69 21 
20 71 70 22 21 72 71 23 22 
73 72 24 23 74 73 25 24 75 
74 26 25 76 75 27 26 77 76 
28 27 78 77 29 28 79 78 30 
29 80 79 31 30 81 80 32 31 
82 81 33 32 83 82 34 33 84 
83 35 34 85 84 36 35 86 85 
37 36 87 86 38 37 88 87 39 
38 89 88 40 39 90 89 41 40 
91 90 42 41 92 91 43 42 93 
92 44 43 94 93 45 44 95 94 
46 45 96 95 47 46 97 96 48 
47 98 97 49 48 99 98 0 49 
50 99 
POINT_DATA 100
NORMALS TubeNormals float
0 -1 0 0.125333 -0.992115 0 0.24869 -0.968583 0 
0.368125 -0.929776 0 0.481754 -0.876307 0 0.587785 -0.809017 0 
0.684547 -0.728969 0 0.770513 -0.637424 0 0.844328 -0.535827 0 
0.904827 -0.425779 0 0.951057 -0.309017 0 0.982287 -0.187381 0 
0.998027 -0.0627905 0 0.998027 0.0627905 0 0.982287 0.187381 0 
0.951057 0.309017 0 0.904827 0.425779 0 0.844328 0.535827 0 
0.770513 0.637424 0 0.684547 0.728969 0 0.587785 0.809017 0 
0.481754 0.876307 0 0.368125 0.929776 0 0.24869 0.968583 0 
0.125333 0.992115 0 -3.21625e-16 1 -0 -0.125333 0.992115 -0 
-0.24869 0.968583 -0 -0.368125 0.929776 -0 -0.481754 0.876307 -0 
-0.587785 0.809017 -0 -0.684547 0.728969 -0 -0.770513 0.637424 -0 
-0.844328 0.535827 -0 -0.904827 0.425779 -0 -0.951057 0.309017 -0 
-0.982287 0.187381 -0 -0.998027 0.0627905 -0 -0.998027 -0.0627905 0 
-0.982287 -0.187381 0 -0.951057 -0.309017 0 -0.904827 -0.425779 0 
-0.844328 -0.535827 0 -0.770513 -0.637424 0 -0.684547 -0.728969 0 
-0.587785 -0.809017 0 -0.481754 -0.876307 0 -0.368125 -0.929776 0 
-0.24869 -0.968583 0 -0.125333 -0.992115 0 0 -1 0 
0.125333 -0.992115 0 0.24869 -0.968583 0 0.368125 -0.929776 0 
0.481754 -0.876307 0 0.587785 -0.809017 0 0.684547 -0.728969 0 
0.770513 -0.637424 0 0.844328 -0.535827 0 0.904827 -0.425779 0 
0.951057 -0.309017 0 0.982287 -0.187381 0 0.998027 -0.0627905 0 
0.998027 0.0627905 0 0.982287 0.187381 0 0.951057 0.309017 0 
0.904827 0.425779 0 0.844328 0.535827 0 0.770513 0.637424 0 
0.684547 0.728969 0 0.587785 0.809017 0 0.481754 0.876307 0 
0.368125 0.929776 0 0.24869 0.968583 0 0.125333 0.992115 0 
-3.21625e-16 1 -0 -0.125333 0.992115 -0 -0.24869 0.968583 -0 
-0.368125 0.929776 -0 -0.481754 0.876307 -0 -0.587785 0.809017 -0 
-0.684547 0.728969 -0 -0.770513 0.637424 -0 -0.844328 0.535827 -0 
-0.904827 0.425779 -0 -0.951057 0.309017 -0 -0.982287 0.187381 -0 
-0.998027 0.0627905 -0 -0.998027 -0.0627905 0 -0.982287 -0.187381 0 
-0.951057 -0.309017 0 -0.904827 -0.425779 0 -0.844328 -0.535827 0 
-0.770513 -0.637424 0 -0.684547 -0.728969 0 -0.587785 -0.809017 0 
-0.481754 -0.876307 0 -0.368125 -0.929776 0 -0.24869 -0.968583 0 
-0.125333 -0.992115 0 
