# vtk DataFile Version 5.1
vtk output
ASCII
DATASET POLYDATA
POINTS 200 float
250 465 -50 254.387 465.276 -50 258.704 466.1 -50 
262.884 467.458 -50 266.861 469.329 -50 270.572 471.684 -50 
273.959 474.486 -50 276.968 477.69 -50 279.551 481.246 -50 
281.669 485.098 -50 283.287 489.184 -50 284.38 493.442 -50 
284.931 497.802 -50 284.931 502.198 -50 284.38 506.558 -50 
283.287 510.816 -50 281.669 514.902 -50 279.551 518.754 -50 
276.968 522.31 -50 273.959 525.514 -50 270.572 528.316 -50 
266.861 530.671 -50 262.884 532.542 -50 258.704 533.9 -50 
254.387 534.724 -50 250 535 -50 245.613 534.724 -50 
241.296 533.9 -50 237.116 532.542 -50 233.139 530.671 -50 
229.428 528.316 -50 226.041 525.514 -50 223.032 522.31 -50 
220.449 518.754 -50 218.331 514.902 -50 216.713 510.816 -50 
215.62 506.558 -50 215.069 502.198 -50 215.069 497.802 -50 
215.62 493.442 -50 216.713 489.184 -50 218.331 485.098 -50 
220.449 481.246 -50 223.032 477.69 -50 226.041 474.486 -50 
229.428 471.684 -50 233.139 469.329 -50 237.116 467.458 -50 
241.296 466.1 -50 245.613 465.276 -50 250 465 -1050 
254.387 465.276 -1050 258.704 466.1 -1050 262.884 467.458 -1050 
266.861 469.329 -1050 270.572 471.684 -1050 273.959 474.486 -1050 
276.968 477.69 -1050 279.551 481.246 -1050 281.669 485.098 -1050 
283.287 489.184 -1050 284.38 493.442 -1050 284.931 497.802 -1050 
284.931 502.198 -1050 284.38 506.558 -1050 283.287 510.816 -1050 
281.669 514.902 -1050 279.551 518.754 -1050 276.968 522.31 -1050 
273.959 525.514 -1050 270.572 528.316 -1050 266.861 530.671 -1050 
262.884 532.542 -1050 258.704 533.9 -1050 254.387 534.724 -1050 
250 535 -1050 245.613 534.724 -1050 241.296 533.9 -1050 
237.116 532.542 -1050 233.139 530.671 -1050 229.428 528.316 -1050 
226.041 525.514 -1050 223.032 522.31 -1050 220.449 518.754 -1050 
218.331 514.902 -1050 216.713 510.816 -1050 215.62 506.558 -1050 
215.069 502.198 -1050 215.069 497.802 -1050 215.62 493.442 -1050 
216.713 489.184 -1050 218.331 485.098 -1050 220.449 481.246 -1050 
223.032 477.69 -1050 226.041 474.486 -1050 229.428 471.684 -1050 
233.139 469.329 -1050 237.116 467.458 -1050 241.296 466.1 -1050 
245.613 465.276 -1050 1350 1815 -50 1354.39 1815.28 -50 
1358.7 1816.1 -50 1362.88 1817.46 -50 1366.86 1819.33 -50 
1370.57 1821.68 -50 1373.96 1824.49 -50 1376.97 1827.69 -50 
1379.55 1831.25 -50 1381.67 1835.1 -50 1383.29 1839.18 -50 
1384.38 1843.44 -50 1384.93 1847.8 -50 1384.93 1852.2 -50 
1384.38 1856.56 -50 1383.29 1860.82 -50 1381.67 1864.9 -50 
1379.55 1868.75 -50 1376.97 1872.31 -50 1373.96 1875.51 -50 
1370.57 1878.32 -50 1366.86 1880.67 -50 1362.88 1882.54 -50 
1358.7 1883.9 -50 1354.39 1884.72 -50 1350 1885 -50 
1345.61 1884.72 -50 1341.3 1883.9 -50 1337.12 1882.54 -50 
1333.14 1880.67 -50 1329.43 1878.32 -50 1326.04 1875.51 -50 
1323.03 1872.31 -50 1320.45 1868.75 -50 1318.33 1864.9 -50 
1316.71 1860.82 -50 1315.62 1856.56 -50 1315.07 1852.2 -50 
1315.07 1847.8 -50 1315.62 1843.44 -50 1316.71 1839.18 -50 
1318.33 1835.1 -50 1320.45 1831.25 -50 1323.03 1827.69 -50 
1326.04 1824.49 -50 1329.43 1821.68 -50 1333.14 1819.33 -50 
1337.12 1817.46 -50 1341.3 1816.1 -50 1345.61 1815.28 -50 
1350 1815 -1050 1354.39 1815.28 -1050 1358.7 1816.1 -1050 
1362.88 1817.46 -1050 1366.86 1819.33 -1050 1370.57 1821.68 -1050 
1373.96 1824.49 -1050 1376.97 1827.69 -1050 1379.55 1831.25 -1050 
1381.67 1835.1 -1050 1383.29 1839.18 -1050 1384.38 1843.44 -1050 
1384.93 1847.8 -1050 1384.93 1852.2 -1050 1384.38 1856.56 -1050 
1383.29 1860.82 -1050 1381.67 1864.9 -1050 1379.55 1868.75 -1050 
1376.97 1872.31 -1050 1373.96 1875.51 -1050 1370.57 1878.32 -1050 
1366.86 1880.67 -1050 1362.88 1882.54 -1050 1358.7 1883.9 -1050 
1354.39 1884.72 -1050 1350 1885 -1050 1345.61 1884.72 -1050 
1341.3 1883.9 -1050 1337.12 1882.54 -1050 1333.14 1880.67 -1050 
1329.43 1878.32 -1050 1326.04 1875.51 -1050 1323.03 1872.31 -1050 
1320.45 1868.75 -1050 1318.33 1864.9 -1050 1316.71 1860.82 -1050 
1315.62 1856.56 -1050 1315.07 1852.2 -1050 1315.07 1847.8 -1050 
1315.62 1843.44 -1050 1316.71 1839.18 -1050 1318.33 1835.1 -1050 
1320.45 1831.25 -1050 1323.03 1827.69 -1050 1326.04 1824.49 -1050 
1329.43 1821.68 -1050 1333.14 1819.33 -1050 1337.12 1817.46 -1050 
1341.3 1816.1 -1050 1345.61 1815.28 -1050 
TRIANGLE_STRIPS 101 400
OFFSETS vtktypeint64
0 4 8 12 16 20 24 28 32 
36 40 44 48 52 56 60 64 68 
72 76 80 84 88 92 96 100 104 
108 112 116 120 124 128 132 136 140 
144 148 152 156 160 164 168 172 176 
180 184 188 192 196 200 204 208 212 
216 220 224 228 232 236 240 244 248 
252 256 260 264 268 272 276 280 284 
288 292 296 300 304 308 312 316 320 
324 328 332 336 340 344 348 352 356 
360 364 368 372 376 380 384 388 392 
396 400 
CONNECTIVITY vtktypeint64
1 0 51 50 2 1 52 51 3 
2 53 52 4 3 54 53 5 4 
55 54 6 5 56 55 7 6 57 
56 8 7 58 57 9 8 59 58 
10 9 60 59 11 10 61 60 12 
11 62 61 13 12 63 62 14 13 
64 63 15 14 65 64 16 15 66 
65 17 16 67 66 18 17 68 67 
19 18 69 68 20 19 70 69 21 
20 71 70 22 21 72 71 23 22 
73 72 24 23 74 73 25 24 75 
74 26 25 76 75 27 26 77 76 
28 27 78 77 29 28 79 78 30 
29 80 79 31 30 81 80 32 31 
82 81 33 32 83 82 34 33 84 
83 35 34 85 84 36 35 86 85 
37 36 87 86 38 37 88 87 39 
38 89 88 40 39 90 89 41 40 
91 90 42 41 92 91 43 42 93 
92 44 43 94 93 45 44 95 94 
46 45 96 95 47 46 97 96 48 
47 98 97 49 48 99 98 0 49 
50 99 101 100 151 150 102 101 152 
151 103 102 153 152 104 103 154 153 
105 104 155 154 106 105 156 155 107 
106 157 156 108 107 158 157 109 108 
159 158 110 109 160 159 111 110 161 
160 112 111 162 161 113 112 163 162 
114 113 164 163 115 114 165 164 116 
115 166 165 117 116 167 166 118 117 
168 167 119 118 169 168 120 119 170 
169 121 120 171 170 122 121 172 171 
123 122 173 172 124 123 174 173 125 
124 175 174 126 125 176 175 127 126 
177 176 128 127 178 177 129 128 179 
178 130 129 180 179 131 130 181 180 
132 131 182 181 133 132 183 182 134 
133 184 183 135 134 185 184 136 135 
186 185 137 136 187 186 138 137 188 
187 139 138 189 188 140 139 190 189 
141 140 191 190 142 141 192 191 143 
142 193 192 144 143 194 193 145 144 
195 194 146 145 196 195 147 146 197 
196 148 147 198 197 149 148 199 198 
100 149 150 199 
POINT_DATA 200
NORMALS TubeNormals float
0 -1 0 0.125333 -0.992115 0 0.24869 -0.968583 0 
0.368125 -0.929776 0 0.481754 -0.876307 0 0.587785 -0.809017 0 
0.684547 -0.728969 0 0.770513 -0.637424 0 0.844328 -0.535827 0 
0.904827 -0.425779 0 0.951057 -0.309017 0 0.982287 -0.187381 0 
0.998027 -0.0627905 0 0.998027 0.0627905 0 0.982287 0.187381 0 
0.951057 0.309017 0 0.904827 0.425779 0 0.844328 0.535827 0 
0.770513 0.637424 0 0.684547 0.728969 0 0.587785 0.809017 0 
0.481754 0.876307 0 0.368125 0.929776 0 0.24869 0.968583 0 
0.125333 0.992115 0 -3.21625e-16 1 -0 -0.125333 0.992115 -0 
-0.24869 0.968583 -0 -0.368125 0.929776 -0 -0.481754 0.876307 -0 
-0.587785 0.809017 -0 -0.684547 0.728969 -0 -0.770513 0.637424 -0 
-0.844328 0.535827 -0 -0.904827 0.425779 -0 -0.951057 0.309017 -0 
-0.982287 0.187381 -0 -0.998027 0.0627905 -0 -0.998027 -0.0627905 0 
-0.982287 -0.187381 0 -0.951057 -0.309017 0 -0.904827 -0.425779 0 
-0.844328 -0.535827 0 -0.770513 -0.637424 0 -0.684547 -0.728969 0 
-0.587785 -0.809017 0 -0.481754 -0.876307 0 -0.368125 -0.929776 0 
-0.24869 -0.968583 0 -0.125333 -0.992115 0 0 -1 0 
0.125333 -0.992115 0 0.24869 -0.968583 0 0.368125 -0.929776 0 
0.481754 -0.876307 0 0.587785 -0.809017 0 0.684547 -0.728969 0 
0.770513 -0.637424 0 0.844328 -0.535827 0 0.904827 -0.425779 0 
0.951057 -0.309017 0 0.982287 -0.187381 0 0.998027 -0.0627905 0 
0.998027 0.0627905 0 0.982287 0.187381 0 0.951057 0.309017 0 
0.904827 0.425779 0 0.844328 0.535827 0 0.770513 0.637424 0 
0.684547 0.728969 0 0.587785 0.809017 0 0.481754 0.876307 0 
0.368125 0.929776 0 0.24869 0.968583 0 0.125333 0.992115 0 
-3.21625e-16 1 -0 -0.125333 0.992115 -0 -0.24869 0.968583 -0 
-0.368125 0.929776 -0 -0.481754 0.876307 -0 -0.587785 0.809017 -0 
-0.684547 0.728969 -0 -0.770513 0.637424 -0 -0.844328 0.535827 -0 
-0.904827 0.425779 -0 -0.951057 0.309017 -0 -0.982287 0.187381 -0 
-0.998027 0.0627905 -0 -0.998027 -0.0627905 0 -0.982287 -0.187381 0 
-0.951057 -0.309017 0 -0.904827 -0.425779 0 -0.844328 -0.535827 0 
-0.770513 -0.637424 0 -0.684547 -0.728969 0 -0.587785 -0.809017 0 
-0.481754 -0.876307 0 -0.368125 -0.929776 0 -0.24869 -0.968583 0 
-0.125333 -0.992115 0 0 -1 0 0.125333 -0.992115 0 
0.24869 -0.968583 0 0.368125 -0.929776 0 0.481754 -0.876307 0 
0.587785 -0.809017 0 0.684547 -0.728969 0 0.770513 -0.637424 0 
0.844328 -0.535827 0 0.904827 -0.425779 0 0.951057 -0.309017 0 
0.982287 -0.187381 0 0.998027 -0.0627905 0 0.998027 0.0627905 0 
0.982287 0.187381 0 0.951057 0.309017 0 0.904827 0.425779 0 
0.844328 0.535827 0 0.770513 0.637424 0 0.684547 0.728969 0 
0.587785 0.809017 0 0.481754 0.876307 0 0.368125 0.929776 0 
0.24869 0.968583 0 0.125333 0.992115 0 -3.21625e-16 1 -0 
-0.125333 0.992115 -0 -0.24869 0.968583 -0 -0.368125 0.929776 -0 
-0.481754 0.876307 -0 -0.587785 0.809017 -0 -0.684547 0.728969 -0 
-0.770513 0.637424 -0 -0.844328 0.535827 -0 -0.904827 0.425779 -0 
-0.951057 0.309017 -0 -0.982287 0.187381 -0 -0.998027 0.0627905 -0 
-0.998027 -0.0627905 0 -0.982287 -0.187381 0 -0.951057 -0.309017 0 
-0.904827 -0.425779 0 -0.844328 -0.535827 0 -0.770513 -0.637424 0 
-0.684547 -0.728969 0 -0.587785 -0.809017 0 -0.481754 -0.876307 0 
-0.368125 -0.929776 0 -0.24869 -0.968583 0 -0.125333 -0.992115 0 
0 -1 0 0.125333 -0.992115 0 0.24869 -0.968583 0 
0.368125 -0.929776 0 0.481754 -0.876307 0 0.587785 -0.809017 0 
0.684547 -0.728969 0 0.770513 -0.637424 0 0.844328 -0.535827 0 
0.904827 -0.425779 0 0.951057 -0.309017 0 0.982287 -0.187381 0 
0.998027 -0.0627905 0 0.998027 0.0627905 0 0.982287 0.187381 0 
0.951057 0.309017 0 0.904827 0.425779 0 0.844328 0.535827 0 
0.770513 0.637424 0 0.684547 0.728969 0 0.587785 0.809017 0 
0.481754 0.876307 0 0.368125 0.929776 0 0.24869 0.968583 0 
0.125333 0.992115 0 -3.21625e-16 1 -0 -0.125333 0.992115 -0 
-0.24869 0.968583 -0 -0.368125 0.929776 -0 -0.481754 0.876307 -0 
-0.587785 0.809017 -0 -0.684547 0.728969 -0 -0.770513 0.637424 -0 
-0.844328 0.535827 -0 -0.904827 0.425779 -0 -0.951057 0.309017 -0 
-0.982287 0.187381 -0 -0.998027 0.0627905 -0 -0.998027 -0.0627905 0 
-0.982287 -0.187381 0 -0.951057 -0.309017 0 -0.904827 -0.425779 0 
-0.844328 -0.535827 0 -0.770513 -0.637424 0 -0.684547 -0.728969 0 
-0.587785 -0.809017 0 -0.481754 -0.876307 0 -0.368125 -0.929776 0 
-0.24869 -0.968583 0 -0.125333 -0.992115 0 
